<svg width="48" height="48" viewBox="0 0 48 48" fill="none" xmlns="http://www.w3.org/2000/svg">
<path d="M42.5906 6.46875H5.40938C3.99376 6.46875 2.85001 7.6125 2.85001 9.02813V28.0875C2.85001 29.5031 3.99376 30.6469 5.40938 30.6469H9.72188V25.65H38.2875V30.6469H42.6C44.0156 30.6469 45.1594 29.5031 45.1594 28.0875V9.0375C45.1594 7.62188 44.0063 6.46875 42.5906 6.46875ZM33.9094 13.7812C33 13.7812 32.2688 13.05 32.2688 12.1406C32.2688 11.2313 33 10.5 33.9094 10.5C34.8188 10.5 35.55 11.2313 35.55 12.1406C35.55 13.05 34.8188 13.7812 33.9094 13.7812ZM39.75 13.7812C38.8406 13.7812 38.1094 13.05 38.1094 12.1406C38.1094 11.2313 38.8406 10.5 39.75 10.5C40.6594 10.5 41.3906 11.2313 41.3906 12.1406C41.3906 13.05 40.65 13.7812 39.75 13.7812Z" fill="#808083"/>
<path d="M24 37.7813C26.7938 37.7813 29.4375 36.5719 31.2656 34.4625C31.5 34.1906 31.4719 33.7781 31.2 33.5344C30.9281 33.3 30.5156 33.3281 30.2719 33.6C28.6875 35.4188 26.4 36.4688 23.9906 36.4688C21.5813 36.4688 19.2938 35.4281 17.7094 33.6C17.475 33.3281 17.0531 33.3 16.7813 33.5344C16.5094 33.7688 16.4813 34.1906 16.7156 34.4625C18.5625 36.5719 21.2063 37.7813 24 37.7813Z" fill="#007AFF"/>
<path d="M34.0313 35.9907C33.7594 35.7563 33.3469 35.7844 33.1031 36.0563C30.8063 38.7001 27.4875 40.2188 24 40.2188C20.5125 40.2188 17.1938 38.7001 14.8969 36.0563C14.6625 35.7844 14.2406 35.7563 13.9688 35.9907C13.6969 36.2251 13.6688 36.6469 13.9031 36.9188C16.4531 39.8438 20.1281 41.5313 24 41.5313C27.8719 41.5313 31.5469 39.8532 34.0969 36.9188C34.3313 36.6376 34.3031 36.2251 34.0313 35.9907Z" fill="#007AFF"/>
</svg>
