<svg width="48" height="48" viewBox="0 0 48 48" fill="none" xmlns="http://www.w3.org/2000/svg">
<path d="M33.1521 11.3903V1.26881C33.1521 0.568125 32.5846 0 31.8846 0H29.8568C29.1567 0 28.5886 0.568125 28.5886 1.26881V11.3903H19.4112V1.26881C19.4113 0.568125 18.8438 0 18.1432 0H16.1161C15.4154 0 14.8479 0.568125 14.8479 1.26881V11.3903H9.5596V15.6992H38.4405V11.3903H33.1521Z" fill="#007AFF"/>
<path d="M9.5595 22.9976C9.5595 28.185 12.6482 32.6486 17.0849 34.6588V37.4431C17.0849 38.78 18.1694 39.8644 19.5064 39.8644H28.4935C29.8312 39.8644 30.915 38.78 30.915 37.4431V34.6588C35.3524 32.6487 38.4404 28.185 38.4404 22.9976V17.6567H9.5595V22.9976Z" fill="#808083"/>
<path d="M26.7458 41.6593H21.2542V48H26.7458V41.6593Z" fill="#808083"/>
</svg>
