<svg width="48" height="48" viewBox="0 0 48 48" fill="none" xmlns="http://www.w3.org/2000/svg">
<path d="M12.7373 6.69116H9.2112V13.8019L21.8918 21.2784V23.8108H23.3357V20.5536L10.6474 12.9782L10.607 8.07548H12.7229L12.7373 6.69116Z" fill="#565656"/>
<path d="M25.0848 23.8434C25.1347 23.5602 24.913 23.301 24.6202 23.301H20.5805C20.2762 23.301 20.0515 23.5794 20.1216 23.8703L20.5219 25.5426C20.6554 26.0985 20.7005 26.6716 20.6573 27.2418C20.471 29.6553 20.0227 36.9052 20.6774 44.2722C20.7053 44.5804 20.9664 44.8175 21.2822 44.8175H24.0787C24.3946 44.8175 24.6576 44.5794 24.6835 44.2693C24.8515 42.2217 25.3709 34.7461 24.7008 27.1074C24.6586 26.6303 24.6797 26.1493 24.7632 25.678L25.0848 23.8434ZM22.6003 43.4581C22.1683 43.4581 21.8179 43.1145 21.8179 42.6901C21.8179 42.2658 22.1683 41.9221 22.6003 41.9221C23.0323 41.9221 23.3827 42.2658 23.3827 42.6901C23.3818 43.1145 23.0323 43.4581 22.6003 43.4581Z" fill="#007AFF"/>
<path d="M12.9888 3.18237H37.6752C37.9344 3.18237 38.1619 3.35037 38.2339 3.59517C38.5603 4.70493 39.2986 7.90749 38.2339 11.4029C38.16 11.6457 37.9334 11.8137 37.6752 11.8137H13.0032C12.7344 11.8137 12.5002 11.6333 12.4378 11.3769C12.1517 10.2096 11.5046 6.88125 12.4262 3.60573C12.4963 3.35709 12.7258 3.18237 12.9888 3.18237Z" fill="#808083"/>
</svg>
