<svg width="48" height="48" viewBox="0 0 48 48" fill="none" xmlns="http://www.w3.org/2000/svg">
<path d="M42.6552 3.03158C38.9682 0.903554 33.8855 0.813869 29.3933 2.79809C25.2366 4.63496 22.2402 8.6824 20.469 11.7241C19.6718 11.5297 18.8186 11.9088 18.4484 12.6803C18.0942 13.418 18.3011 14.2739 18.8905 14.7853C18.729 15.1449 18.6304 15.3863 18.5932 15.4804L9.99035 34.3763C9.12292 33.9767 8.0895 34.3328 7.66159 35.1948C7.2257 36.0728 7.58351 37.1383 8.46152 37.575L8.5201 37.6043L6.58481 41.8578H1.7756C0.795469 41.8578 0 42.6533 0 43.6334C0 44.6135 0.795469 45.409 1.7756 45.409H10.6536C11.6337 45.409 12.4292 44.6135 12.4292 43.6334C12.4292 42.6533 11.6337 41.8578 10.6536 41.8578H10.4867L11.718 39.1527C11.8805 39.1997 12.0448 39.2317 12.209 39.2317C12.8615 39.2317 13.4901 38.8703 13.8009 38.2462C14.2075 37.4277 13.918 36.4537 13.1669 35.9708L22.0814 16.3904C22.322 16.5014 22.5732 16.5565 22.8227 16.5565C23.4841 16.5565 24.1188 16.1854 24.4243 15.5488C24.8308 14.7027 24.5006 13.6995 23.6962 13.2432C25.2152 10.6836 27.647 7.4529 30.8297 6.04662C34.2513 4.53469 38.1967 4.55781 40.8805 6.10697C42.8541 7.24605 43.9878 9.05804 44.2523 11.4941C44.7477 16.0566 44.3277 19.1159 43.0077 20.5887C42.886 20.7246 42.752 20.8409 42.6153 20.9509V24.9256C43.709 24.5562 44.7593 23.9535 45.6506 22.9601C47.7032 20.674 48.4001 16.7978 47.7831 11.1114C47.4015 7.5878 45.5796 4.71843 42.6552 3.03158Z" fill="#808083"/>
<path d="M37.5984 32.9798C38.7569 32.9798 39.8525 33.2435 40.8388 33.7033V25.3394V21.7367V19.6628C40.8388 18.6819 40.932 18.7751 39.9511 18.7751H36.4736C35.4926 18.7751 25.598 19.5892 22.9843 32.5093L21.3072 43.1894C21.3072 44.1704 22.1019 45.4089 23.0828 45.4089H31.509C30.495 44.103 29.8852 42.4694 29.8852 40.6929C29.8852 36.4395 33.3458 32.9798 37.5984 32.9798Z" fill="#007AFF"/>
<path d="M41.7267 36.435C41.4541 36.1713 41.1576 35.9334 40.8389 35.7248C39.9059 35.114 38.7934 34.7554 37.5985 34.7554C34.3242 34.7554 31.6609 37.4188 31.6609 40.693C31.6609 42.6159 32.5842 44.324 34.0065 45.409C34.5019 45.7871 35.0567 46.0881 35.656 46.2967C36.2659 46.5089 36.9177 46.6297 37.5986 46.6297C38.2796 46.6297 38.9312 46.5089 39.5411 46.2967C40.1697 46.0783 40.7512 45.7578 41.2643 45.3539C41.7473 44.9739 42.1726 44.5238 42.518 44.0142C43.1607 43.0651 43.5372 41.9217 43.5372 40.6921C43.5372 39.5291 43.1963 38.4468 42.6166 37.5306C42.3614 37.131 42.0649 36.7627 41.7267 36.435ZM37.5984 37.7144C39.2426 37.7144 40.5761 39.0478 40.5761 40.6921C40.5761 42.3363 39.2426 43.6698 37.5984 43.6698C35.9541 43.6698 34.6207 42.3363 34.6207 40.6921C34.6207 39.0478 35.9533 37.7144 37.5984 37.7144Z" fill="#808083"/>
</svg>
